<?xml version="1.0" encoding="UTF-8" standalone="no"?>
<svg
   xmlns:dc="http://purl.org/dc/elements/1.1/"
   xmlns:cc="http://creativecommons.org/ns#"
   xmlns:rdf="http://www.w3.org/1999/02/22-rdf-syntax-ns#"
   xmlns:svg="http://www.w3.org/2000/svg"
   xmlns="http://www.w3.org/2000/svg"
   xmlns:sodipodi="http://sodipodi.sourceforge.net/DTD/sodipodi-0.dtd"
   xmlns:inkscape="http://www.inkscape.org/namespaces/inkscape"
   width="40mm"
   height="40mm"
   viewBox="0 0 40 40"
   version="1.1"
   id="svg10307"
   inkscape:version="1.0.1 (3bc2e813f5, 2020-09-07)"
   sodipodi:docname="icon-menu-create-snap-road.svg"
   inkscape:export-filename="C:\__FILES\Gordon\PROJECT\Logo\icon-menu-options-40.png"
   inkscape:export-xdpi="25.486845"
   inkscape:export-ydpi="25.486845">
  <defs
     id="defs10301">
    <marker
       style="overflow:visible"
       id="marker12664"
       refX="0.0"
       refY="0.0"
       orient="auto"
       inkscape:stockid="Arrow1Lstart"
       inkscape:isstock="true">
      <path
         transform="scale(0.8) translate(12.5,0)"
         style="fill-rule:evenodd;stroke:#000000;stroke-width:1.0pt"
         d="M 0.0,0.0 L 5.0,-5.0 L -12.5,0.0 L 5.0,5.0 L 0.0,0.0 z "
         id="path12662" />
    </marker>
    <marker
       style="overflow:visible"
       id="marker12636"
       refX="0.0"
       refY="0.0"
       orient="auto"
       inkscape:stockid="Arrow1Lstart"
       inkscape:isstock="true">
      <path
         transform="scale(0.8) translate(12.5,0)"
         style="fill-rule:evenodd;stroke:#000000;stroke-width:1.0pt"
         d="M 0.0,0.0 L 5.0,-5.0 L -12.5,0.0 L 5.0,5.0 L 0.0,0.0 z "
         id="path12634" />
    </marker>
    <marker
       style="overflow:visible"
       id="marker12614"
       refX="0.0"
       refY="0.0"
       orient="auto"
       inkscape:stockid="Arrow1Lstart"
       inkscape:isstock="true">
      <path
         transform="scale(0.8) translate(12.5,0)"
         style="fill-rule:evenodd;stroke:#000000;stroke-width:1.0pt"
         d="M 0.0,0.0 L 5.0,-5.0 L -12.5,0.0 L 5.0,5.0 L 0.0,0.0 z "
         id="path12612" />
    </marker>
    <marker
       style="overflow:visible"
       id="marker12598"
       refX="0.0"
       refY="0.0"
       orient="auto"
       inkscape:stockid="Arrow1Lstart"
       inkscape:isstock="true">
      <path
         transform="scale(0.8) translate(12.5,0)"
         style="fill-rule:evenodd;stroke:#000000;stroke-width:1.0pt"
         d="M 0.0,0.0 L 5.0,-5.0 L -12.5,0.0 L 5.0,5.0 L 0.0,0.0 z "
         id="path12596" />
    </marker>
    <marker
       style="overflow:visible"
       id="Arrow1Lstart"
       refX="0.0"
       refY="0.0"
       orient="auto"
       inkscape:stockid="Arrow1Lstart"
       inkscape:isstock="true">
      <path
         transform="scale(0.8) translate(12.5,0)"
         style="fill-rule:evenodd;stroke:#000000;stroke-width:1.0pt"
         d="M 0.0,0.0 L 5.0,-5.0 L -12.5,0.0 L 5.0,5.0 L 0.0,0.0 z "
         id="path12326" />
    </marker>
    <clipPath
       clipPathUnits="userSpaceOnUse"
       id="clipPath1218">
      <rect
         style="fill:#523209;fill-opacity:0.00552488;stroke:#83964b;stroke-width:0.0728027;stroke-miterlimit:4;stroke-dasharray:none;stroke-dashoffset:0;stroke-opacity:1;paint-order:fill markers stroke"
         id="rect1220"
         width="16.521772"
         height="15.786779"
         x="161.75128"
         y="250.45743"
         inkscape:export-xdpi="96"
         inkscape:export-ydpi="96" />
    </clipPath>
    <clipPath
       clipPathUnits="userSpaceOnUse"
       id="clipPath12862">
      <ellipse
         style="fill:none;fill-opacity:0.0931174;stroke:#523209;stroke-width:1.74618;stroke-linecap:round;stroke-miterlimit:4;stroke-dasharray:none;stroke-opacity:1"
         id="circle12864"
         cx="169.91194"
         cy="258.50043"
         rx="9.0217924"
         ry="8.6210232" />
    </clipPath>
    <filter
       style="color-interpolation-filters:sRGB"
       inkscape:label="Blur"
       id="filter6315"
       x="-0.25999999"
       width="1.49"
       y="-0.91000003"
       height="3">
      <feGaussianBlur
         stdDeviation="2 2"
         result="blur"
         id="feGaussianBlur6313" />
    </filter>
    <filter
       style="color-interpolation-filters:sRGB"
       inkscape:label="Drop Shadow"
       id="filter6285"
       x="-0.2"
       width="1.41"
       y="-0.13"
       height="1.3">
      <feFlood
         flood-opacity="0.498039"
         flood-color="rgb(0,0,0)"
         result="flood"
         id="feFlood6275" />
      <feComposite
         in="flood"
         in2="SourceGraphic"
         operator="in"
         result="composite1"
         id="feComposite6277" />
      <feGaussianBlur
         in="composite1"
         stdDeviation="0.5"
         result="blur"
         id="feGaussianBlur6279" />
      <feOffset
         dx="0.59999999999999998"
         dy="0.59999999999999998"
         result="offset"
         id="feOffset6281"
         preserveAlpha="false" />
      <feComposite
         in="SourceGraphic"
         in2="offset"
         operator="over"
         result="composite2"
         id="feComposite6283" />
    </filter>
    <filter
       style="color-interpolation-filters:sRGB"
       inkscape:label="Blur"
       id="filter6315-2"
       x="-0.25999999"
       width="1.49"
       y="-0.91000003"
       height="3">
      <feGaussianBlur
         stdDeviation="2 2"
         result="blur"
         id="feGaussianBlur6313-2" />
    </filter>
    <filter
       style="color-interpolation-filters:sRGB"
       inkscape:label="Drop Shadow"
       id="filter6285-2"
       x="-0.2"
       width="1.41"
       y="-0.13"
       height="1.3">
      <feFlood
         flood-opacity="0.498039"
         flood-color="rgb(0,0,0)"
         result="flood"
         id="feFlood6275-8" />
      <feComposite
         in="flood"
         in2="SourceGraphic"
         operator="in"
         result="composite1"
         id="feComposite6277-0" />
      <feGaussianBlur
         in="composite1"
         stdDeviation="0.5"
         result="blur"
         id="feGaussianBlur6279-9" />
      <feOffset
         dx="0.59999999999999998"
         dy="0.59999999999999998"
         result="offset"
         id="feOffset6281-1"
         preserveAlpha="false" />
      <feComposite
         in="SourceGraphic"
         in2="offset"
         operator="over"
         result="composite2"
         id="feComposite6283-9" />
    </filter>
  </defs>
  <sodipodi:namedview
     id="base"
     pagecolor="#ffffff"
     bordercolor="#666666"
     borderopacity="1.0"
     inkscape:pageopacity="0.0"
     inkscape:pageshadow="2"
     inkscape:zoom="1.4142136"
     inkscape:cx="42.401511"
     inkscape:cy="81.154623"
     inkscape:document-units="mm"
     inkscape:current-layer="g2370"
     inkscape:document-rotation="0"
     showgrid="false"
     inkscape:pagecheckerboard="false"
     fit-margin-top="0"
     fit-margin-left="0"
     fit-margin-right="0"
     fit-margin-bottom="0"
     inkscape:window-width="1440"
     inkscape:window-height="837"
     inkscape:window-x="-8"
     inkscape:window-y="-8"
     inkscape:window-maximized="1"
     inkscape:snap-global="false" />
  <metadata
     id="metadata10304">
    <rdf:RDF>
      <cc:Work
         rdf:about="">
        <dc:format>image/svg+xml</dc:format>
        <dc:type
           rdf:resource="http://purl.org/dc/dcmitype/StillImage" />
        <dc:title></dc:title>
      </cc:Work>
    </rdf:RDF>
  </metadata>
  <g
     inkscape:label="Layer 1"
     inkscape:groupmode="layer"
     id="layer1"
     transform="translate(-32.72148,-29.637969)">
    <g
       id="g3536"
       style="fill:#83964b;fill-opacity:1"
       transform="matrix(0.21963746,0,0,0.21963746,41.944111,24.683845)">
      <g
         id="g2290" />
      <g
         id="g12947"
         transform="matrix(3.6204239,0,0,3.6204239,-345.60596,-140.1495)">
        <circle
           style="opacity:1;fill:#ffffff;fill-opacity:1;stroke:none;stroke-width:1.23471;stroke-linecap:butt;stroke-linejoin:round;stroke-miterlimit:4;stroke-dasharray:none;stroke-opacity:0.996078"
           id="path12941"
           cx="64.064278"
           cy="86.865417"
           r="11.117315" />
        <path
           style="fill:#523209;fill-opacity:1;stroke-width:0.0952654"
           d="m 61.934887,95.606066 c -0.04818,-0.09169 -0.16257,-0.707169 -0.254191,-1.367728 l -0.166585,-1.20101 -0.487472,-0.24686 c -0.268108,-0.135773 -0.616081,-0.3309 -0.773269,-0.433618 l -0.285798,-0.186756 -1.218101,0.485328 c -1.202915,0.479284 -1.220345,0.483036 -1.398222,0.300907 -0.09907,-0.101432 -0.593199,-0.900288 -1.098073,-1.775234 -0.746379,-1.293484 -0.900056,-1.624233 -0.822233,-1.769644 0.05263,-0.09836 0.51799,-0.506453 1.034111,-0.906875 l 0.938404,-0.72804 -0.0057,-0.912659 -0.0057,-0.912658 -0.96329,-0.754224 C 55.898961,84.782171 55.438116,84.371459 55.40467,84.2843 c -0.06268,-0.163364 1.591923,-3.146559 1.946687,-3.509797 0.177877,-0.182126 0.195308,-0.178376 1.398222,0.300906 l 1.218102,0.485332 0.285798,-0.186758 c 0.157187,-0.102717 0.50516,-0.297845 0.773269,-0.433618 l 0.48747,-0.246859 0.166586,-1.201011 c 0.09162,-0.660558 0.206008,-1.276034 0.254192,-1.367728 0.07927,-0.150864 0.281707,-0.166716 2.129118,-0.166716 1.847419,0 2.049845,0.01585 2.129123,0.166716 0.04818,0.09169 0.162567,0.70717 0.254192,1.367728 l 0.166585,1.201011 0.487472,0.246859 c 0.268107,0.135773 0.61608,0.331143 0.773269,0.434155 l 0.285797,0.187295 1.176889,-0.471442 c 0.647288,-0.259293 1.247465,-0.448848 1.333725,-0.421232 0.228735,0.07323 2.1278,3.418665 2.052307,3.615396 -0.03338,0.08703 -0.4942,0.497634 -1.024008,0.912458 l -0.963287,0.754224 -0.0057,0.912658 -0.0057,0.912659 0.938403,0.72804 c 0.516122,0.400422 0.981472,0.808515 1.034112,0.906875 0.07783,0.145411 -0.07586,0.47616 -0.822234,1.769644 -0.504872,0.874946 -0.999005,1.673802 -1.098072,1.775234 -0.177877,0.182129 -0.195307,0.178377 -1.398221,-0.300907 L 68.16062,92.170094 67.874823,92.35685 c -0.157188,0.102718 -0.505161,0.297845 -0.773269,0.433618 l -0.487471,0.24686 -0.166585,1.20101 c -0.09163,0.660559 -0.20601,1.276035 -0.254193,1.367728 -0.07927,0.150866 -0.281703,0.166716 -2.129122,0.166716 -1.847411,0 -2.049841,-0.01585 -2.12912,-0.166716 z m 3.587029,-5.976651 c 0.571965,-0.311636 1.051494,-0.801665 1.372128,-1.402165 0.185946,-0.348252 0.218473,-0.551016 0.218473,-1.361833 0,-0.875894 -0.02254,-0.993372 -0.2799,-1.457907 -0.317893,-0.57384 -0.809232,-1.053074 -1.406777,-1.372129 -0.34825,-0.185945 -0.551014,-0.218474 -1.361834,-0.218474 -0.810816,0 -1.01358,0.03252 -1.36183,0.218474 -0.597546,0.319055 -1.088884,0.798289 -1.406781,1.372129 -0.257342,0.464535 -0.279896,0.582013 -0.279896,1.457907 0,0.806345 0.03302,1.014436 0.214934,1.354891 0.653538,1.223054 1.594592,1.765013 2.976474,1.714179 0.678854,-0.02497 0.891441,-0.07429 1.315009,-0.305072 z"
           id="path12901" />
      </g>
      <g
         id="g2370"
         transform="matrix(1,0,0,0.94606444,192.49812,74.974341)">
        <g
           id="g2426"
           transform="matrix(1,0,0,0.83173284,-0.958285,26.427199)">
          <path
             style="fill:#523209;fill-opacity:1;stroke:none;stroke-width:1.20653;stroke-linecap:butt;stroke-linejoin:miter;stroke-miterlimit:4;stroke-dasharray:9.65227, 9.65227;stroke-dashoffset:0;stroke-opacity:1"
             d="m -204.61619,112.30134 21.68346,-195.753448 h 80.71065 L -80.325676,112.3316 M -145.589,124.95003 v -230.0856"
             id="path2343"
             sodipodi:nodetypes="cccccc" />
          <path
             style="fill:none;stroke:#ffffff;stroke-width:7.02141;stroke-linecap:butt;stroke-linejoin:miter;stroke-miterlimit:4;stroke-dasharray:none;stroke-opacity:1"
             d="M -143.42922,98.556195 V 69.744402"
             id="path2374" />
          <path
             style="fill:none;fill-opacity:1;stroke:#ffffff;stroke-width:6.32901;stroke-linecap:butt;stroke-linejoin:miter;stroke-miterlimit:4;stroke-dasharray:none;stroke-opacity:1"
             d="M -143.42922,44.993106 V 21.583524"
             id="path2374-6" />
          <path
             style="fill:none;fill-opacity:1;stroke:#ffffff;stroke-width:5.688;stroke-linecap:butt;stroke-linejoin:miter;stroke-miterlimit:4;stroke-dasharray:none;stroke-opacity:1"
             d="M -143.42922,-3.026556 V -21.934295"
             id="path2374-6-3" />
          <path
             style="fill:none;fill-opacity:1;stroke:#ffffff;stroke-width:5.26607;stroke-linecap:butt;stroke-linejoin:miter;stroke-miterlimit:4;stroke-dasharray:none;stroke-opacity:1"
             d="M -143.42922,-45.052585 V -61.259219"
             id="path2374-6-3-4" />
        </g>
      </g>
    </g>
    <path
       style="fill:#000000;stroke-width:0.264583"
       id="path3534"
       d="" />
    <path
       style="fill:#000000;stroke-width:0.264583"
       id="path3532"
       d="" />
  </g>
</svg>
