<?xml version="1.0" encoding="UTF-8" standalone="no"?>
<svg
   xmlns:dc="http://purl.org/dc/elements/1.1/"
   xmlns:cc="http://creativecommons.org/ns#"
   xmlns:rdf="http://www.w3.org/1999/02/22-rdf-syntax-ns#"
   xmlns:svg="http://www.w3.org/2000/svg"
   xmlns="http://www.w3.org/2000/svg"
   xmlns:sodipodi="http://sodipodi.sourceforge.net/DTD/sodipodi-0.dtd"
   xmlns:inkscape="http://www.inkscape.org/namespaces/inkscape"
   width="40mm"
   height="40mm"
   viewBox="0 0 40 40"
   version="1.1"
   id="svg10307"
   inkscape:version="1.0.1 (3bc2e813f5, 2020-09-07)"
   sodipodi:docname="icon-menu-options.svg">
  <defs
     id="defs10301" />
  <sodipodi:namedview
     id="base"
     pagecolor="#ffffff"
     bordercolor="#666666"
     borderopacity="1.0"
     inkscape:pageopacity="0.0"
     inkscape:pageshadow="2"
     inkscape:zoom="2.7967705"
     inkscape:cx="111.92737"
     inkscape:cy="110.11222"
     inkscape:document-units="mm"
     inkscape:current-layer="layer1"
     inkscape:document-rotation="0"
     showgrid="false"
     inkscape:pagecheckerboard="true"
     fit-margin-top="0"
     fit-margin-left="0"
     fit-margin-right="0"
     fit-margin-bottom="0"
     inkscape:window-width="1800"
     inkscape:window-height="1046"
     inkscape:window-x="-9"
     inkscape:window-y="-9"
     inkscape:window-maximized="1" />
  <metadata
     id="metadata10304">
    <rdf:RDF>
      <cc:Work
         rdf:about="">
        <dc:format>image/svg+xml</dc:format>
        <dc:type
           rdf:resource="http://purl.org/dc/dcmitype/StillImage" />
        <dc:title></dc:title>
      </cc:Work>
    </rdf:RDF>
  </metadata>
  <g
     inkscape:label="Layer 1"
     inkscape:groupmode="layer"
     id="layer1"
     transform="translate(-32.72148,-29.637969)">
    <path
       style="fill:#523209;stroke-width:0.0940069;fill-opacity:1"
       d="M 49.219715,67.513857 C 47.579168,67.069768 46.154217,65.94329 45.38351,64.481178 l -0.404949,-0.768227 -5.524455,-0.02569 -5.524453,-0.02569 -0.347094,-0.235018 C 33.391658,63.297297 33.11982,63.025942 32.978474,62.823548 32.752803,62.500411 32.72148,62.367667 32.72148,61.734429 c 0,-0.633234 0.03134,-0.765978 0.256994,-1.089118 0.141346,-0.202395 0.413184,-0.473746 0.604085,-0.603009 l 0.347094,-0.235014 5.524453,-0.02569 5.524455,-0.02569 0.404949,-0.768231 c 0.790142,-1.498978 2.23769,-2.622108 3.92307,-3.043845 0.912142,-0.22825 2.476122,-0.14862 3.373232,0.171753 1.414884,0.505272 2.669592,1.597083 3.345522,2.911175 l 0.353114,0.686497 7.543912,0.047 7.543908,0.04701 0.347113,0.235014 c 0.190907,0.129263 0.462756,0.400614 0.604102,0.603009 0.225671,0.32314 0.256994,0.455885 0.256994,1.089118 0,0.633238 -0.03134,0.765982 -0.256994,1.089119 -0.141346,0.202394 -0.413195,0.473749 -0.604102,0.603008 l -0.347113,0.235018 -7.543908,0.047 -7.543912,0.04701 -0.353114,0.686494 c -0.675657,1.313566 -1.929149,2.404593 -3.345522,2.911915 -0.568928,0.20378 -0.880617,0.250651 -1.814973,0.272918 -0.780531,0.01862 -1.28738,-0.01624 -1.645124,-0.113072 z M 65.48294,55.578105 c -0.336077,-0.07564 -0.970626,-0.31424 -1.410106,-0.530218 -1.071297,-0.526483 -2.160227,-1.59547 -2.669009,-2.620137 l -0.350083,-0.705051 -13.56314,-0.047 -13.563141,-0.04701 -0.367976,-0.256993 C 33.357101,51.230349 33.085757,50.958479 32.956498,50.76754 32.75657,50.472209 32.72148,50.313048 32.72148,49.701548 c 0,-0.611504 0.0351,-0.770665 0.235018,-1.065996 0.129259,-0.190939 0.400603,-0.462809 0.602987,-0.604156 l 0.367976,-0.256993 13.563141,-0.047 13.56314,-0.04701 0.350083,-0.705051 c 0.257935,-0.51947 0.550114,-0.904642 1.110017,-1.463305 0.833554,-0.831714 1.338587,-1.151845 2.405055,-1.524518 0.609464,-0.212977 0.857991,-0.24638 1.833136,-0.24638 0.975145,0 1.223672,0.0334 1.833139,0.24638 1.066056,0.372531 1.571232,0.69263 2.405975,1.524518 1.205889,1.201764 1.730333,2.471557 1.730333,4.189511 0,1.717954 -0.524444,2.987743 -1.730333,4.189507 -0.841089,0.838215 -1.353541,1.161067 -2.405808,1.515694 -0.887296,0.299033 -2.210434,0.372115 -3.102399,0.171356 z M 41.088105,43.411967 c -0.799778,-0.234988 -1.18062,-0.411842 -1.815943,-0.843283 -0.761075,-0.516836 -1.52387,-1.386383 -1.946356,-2.218749 L 36.97313,39.65511 35.458352,39.62545 C 33.9848,39.5966 33.933338,39.58879 33.567543,39.338531 33.360726,39.19704 33.085757,38.925169 32.956498,38.734373 32.756545,38.439234 32.72148,38.280217 32.72148,37.668644 c 0,-0.611502 0.0351,-0.770662 0.235018,-1.065993 0.129259,-0.19094 0.400436,-0.462811 0.602614,-0.604158 0.358308,-0.250501 0.406075,-0.257743 1.890805,-0.286655 l 1.523213,-0.02966 0.355263,-0.699927 c 0.671862,-1.32367 1.932737,-2.425475 3.354845,-2.931597 0.515931,-0.183618 0.92838,-0.254643 1.657172,-0.285369 1.252363,-0.0528 1.926676,0.08209 3.002645,0.600653 1.132142,0.545635 2.041688,1.427586 2.637061,2.557058 l 0.405527,0.76931 11.541425,0.0246 11.541432,0.0246 0.367968,0.256994 c 0.202388,0.141347 0.473732,0.413218 0.602991,0.604158 0.199928,0.29533 0.235018,0.454491 0.235018,1.065993 0,0.611502 -0.0351,0.770663 -0.235018,1.065992 -0.129259,0.190941 -0.400603,0.462812 -0.602991,0.604158 l -0.367968,0.256994 -11.546399,0.0246 -11.546392,0.0246 -0.24728,0.492442 c -0.854761,1.702211 -2.322024,2.914699 -4.00826,3.312274 -0.806881,0.190244 -2.320248,0.171411 -3.032064,-0.03773 z"
       id="path10912" />
  </g>
</svg>
