<?xml version="1.0" encoding="UTF-8" standalone="no"?>
<svg
   xmlns:dc="http://purl.org/dc/elements/1.1/"
   xmlns:cc="http://creativecommons.org/ns#"
   xmlns:rdf="http://www.w3.org/1999/02/22-rdf-syntax-ns#"
   xmlns:svg="http://www.w3.org/2000/svg"
   xmlns="http://www.w3.org/2000/svg"
   xmlns:sodipodi="http://sodipodi.sourceforge.net/DTD/sodipodi-0.dtd"
   xmlns:inkscape="http://www.inkscape.org/namespaces/inkscape"
   width="20mm"
   height="40mm"
   viewBox="0 0 19.999999 40"
   version="1.1"
   id="svg5135"
   inkscape:version="1.0.1 (3bc2e813f5, 2020-09-07)"
   sodipodi:docname="start-marker.svg">
  <defs
     id="defs5129">
    <filter
       style="color-interpolation-filters:sRGB"
       inkscape:label="Blur"
       id="filter6037"
       x="-0.2"
       width="1.4299999"
       y="-0.18000001"
       height="1.3">
      <feFlood
         flood-opacity="0.498039"
         flood-color="rgb(0,0,0)"
         result="flood"
         id="feFlood6027" />
      <feComposite
         in="flood"
         in2="SourceGraphic"
         operator="in"
         result="composite1"
         id="feComposite6029" />
      <feGaussianBlur
         in="composite1"
         stdDeviation="73.6527"
         result="blur"
         id="feGaussianBlur6031" />
      <feOffset
         dx="24.2515"
         dy="0.5"
         result="offset"
         id="feOffset6033" />
      <feComposite
         in="SourceGraphic"
         in2="offset"
         operator="over"
         result="fbSourceGraphic"
         id="feComposite6035" />
      <feColorMatrix
         result="fbSourceGraphicAlpha"
         in="fbSourceGraphic"
         values="0 0 0 -1 0 0 0 0 -1 0 0 0 0 -1 0 0 0 0 1 0"
         id="feColorMatrix6115" />
      <feGaussianBlur
         id="feGaussianBlur6117"
         stdDeviation="1.05 1.05"
         result="blur"
         in="fbSourceGraphic" />
    </filter>
    <filter
       style="color-interpolation-filters:sRGB"
       inkscape:label="Drop Shadow"
       id="filter6285"
       x="-0.2"
       width="1.41"
       y="-0.13"
       height="1.3">
      <feFlood
         flood-opacity="0.498039"
         flood-color="rgb(0,0,0)"
         result="flood"
         id="feFlood6275" />
      <feComposite
         in="flood"
         in2="SourceGraphic"
         operator="in"
         result="composite1"
         id="feComposite6277" />
      <feGaussianBlur
         in="composite1"
         stdDeviation="0.5"
         result="blur"
         id="feGaussianBlur6279" />
      <feOffset
         dx="0.59999999999999998"
         dy="0.59999999999999998"
         result="offset"
         id="feOffset6281"
         preserveAlpha="false" />
      <feComposite
         in="SourceGraphic"
         in2="offset"
         operator="over"
         result="composite2"
         id="feComposite6283" />
    </filter>
    <filter
       style="color-interpolation-filters:sRGB;"
       inkscape:label="Blur"
       id="filter6315"
       x="-0.26000000000000012"
       width="1.4900000000000002"
       y="-0.91000000000000036"
       height="3">
      <feGaussianBlur
         stdDeviation="1.5 1.5"
         result="blur"
         id="feGaussianBlur6313" />
    </filter>
    <filter
       style="color-interpolation-filters:sRGB"
       inkscape:label="Drop Shadow"
       id="filter6285-6"
       x="-0.2"
       width="1.41"
       y="-0.13"
       height="1.3">
      <feFlood
         flood-opacity="0.498039"
         flood-color="rgb(0,0,0)"
         result="flood"
         id="feFlood6275-8" />
      <feComposite
         in="flood"
         in2="SourceGraphic"
         operator="in"
         result="composite1"
         id="feComposite6277-9" />
      <feGaussianBlur
         in="composite1"
         stdDeviation="0.5"
         result="blur"
         id="feGaussianBlur6279-5" />
      <feOffset
         dx="0.59999999999999998"
         dy="0.59999999999999998"
         result="offset"
         id="feOffset6281-9"
         preserveAlpha="false" />
      <feComposite
         in="SourceGraphic"
         in2="offset"
         operator="over"
         result="composite2"
         id="feComposite6283-6" />
    </filter>
    <clipPath
       clipPathUnits="userSpaceOnUse"
       id="clipPath6494">
      <path
         id="path6496"
         style="fill:none;fill-opacity:1;stroke:#000000;stroke-width:1.47443;stroke-linecap:round;stroke-linejoin:miter;stroke-miterlimit:4;stroke-dasharray:none;stroke-opacity:1;paint-order:fill markers stroke"
         d="m 76.066039,93.410912 c 3.322093,-5.739122 7.359587,-11.204543 7.359587,-15.04147 0,-3.836939 -3.299102,-6.947373 -7.368748,-6.947373 m 0.0086,21.988843 C 72.743355,87.67179 68.687557,82.206369 68.687557,78.36943 c 0,-3.836927 3.299102,-6.947361 7.368748,-6.947361"
         inkscape:connector-curvature="0"
         sodipodi:nodetypes="csccsc" />
    </clipPath>
    <filter
       style="color-interpolation-filters:sRGB"
       inkscape:label="Drop Shadow"
       id="filter6285-6-7"
       x="-0.2"
       width="1.41"
       y="-0.13"
       height="1.3">
      <feFlood
         flood-opacity="0.498039"
         flood-color="rgb(0,0,0)"
         result="flood"
         id="feFlood6275-8-3" />
      <feComposite
         in="flood"
         in2="SourceGraphic"
         operator="in"
         result="composite1"
         id="feComposite6277-9-7" />
      <feGaussianBlur
         in="composite1"
         stdDeviation="0.29999999999999999"
         result="blur"
         id="feGaussianBlur6279-5-1" />
      <feOffset
         dx="0.5"
         dy="0.5"
         result="offset"
         id="feOffset6281-9-9"
         preserveAlpha="false" />
      <feComposite
         in="SourceGraphic"
         in2="offset"
         operator="over"
         result="composite2"
         id="feComposite6283-6-8" />
    </filter>
    <clipPath
       clipPathUnits="userSpaceOnUse"
       id="clipPath7220">
      <path
         id="path7222"
         style="fill:none;fill-opacity:1;stroke:#523209;stroke-width:1.20436;stroke-linecap:round;stroke-linejoin:miter;stroke-miterlimit:4;stroke-dasharray:none;stroke-opacity:1;paint-order:fill markers stroke;filter:url(#filter6285-6)"
         d="m 76.74524,81.594211 c 2.71358,-4.687877 6.011521,-9.152188 6.011521,-12.286298 0,-3.13412 -2.694801,-5.67481 -6.019001,-5.67481 m 0.007,17.961108 c -2.713581,-4.687877 -6.026472,-9.152188 -6.026472,-12.286308 0,-3.13411 2.694801,-5.6748 6.019001,-5.6748"
         inkscape:connector-curvature="0"
         sodipodi:nodetypes="csccsc" />
    </clipPath>
    <filter
       style="color-interpolation-filters:sRGB"
       inkscape:label="Drop Shadow"
       id="filter6285-69"
       x="-0.2"
       width="1.41"
       y="-0.13"
       height="1.3">
      <feFlood
         flood-opacity="0.498039"
         flood-color="rgb(0,0,0)"
         result="flood"
         id="feFlood6275-82" />
      <feComposite
         in="flood"
         in2="SourceGraphic"
         operator="in"
         result="composite1"
         id="feComposite6277-94" />
      <feGaussianBlur
         in="composite1"
         stdDeviation="0.5"
         result="blur"
         id="feGaussianBlur6279-57" />
      <feOffset
         dx="0.59999999999999998"
         dy="0.59999999999999998"
         result="offset"
         id="feOffset6281-8"
         preserveAlpha="false" />
      <feComposite
         in="SourceGraphic"
         in2="offset"
         operator="over"
         result="composite2"
         id="feComposite6283-0" />
    </filter>
    <filter
       style="color-interpolation-filters:sRGB;"
       inkscape:label="Drop Shadow"
       id="filter1531">
      <feFlood
         flood-opacity="0.498039"
         flood-color="rgb(0,0,0)"
         result="flood"
         id="feFlood1521" />
      <feComposite
         in="flood"
         in2="SourceGraphic"
         operator="in"
         result="composite1"
         id="feComposite1523" />
      <feGaussianBlur
         in="composite1"
         stdDeviation="0.29999999999999999"
         result="blur"
         id="feGaussianBlur1525" />
      <feOffset
         dx="0.5"
         dy="0.5"
         result="offset"
         id="feOffset1527" />
      <feComposite
         in="SourceGraphic"
         in2="offset"
         operator="over"
         result="composite2"
         id="feComposite1529" />
    </filter>
  </defs>
  <sodipodi:namedview
     id="base"
     pagecolor="#ffffff"
     bordercolor="#666666"
     borderopacity="1.0"
     inkscape:pageopacity="0.0"
     inkscape:pageshadow="2"
     inkscape:zoom="5.4682924"
     inkscape:cx="43.508785"
     inkscape:cy="38.366574"
     inkscape:document-units="mm"
     inkscape:current-layer="layer1"
     inkscape:document-rotation="0"
     showgrid="false"
     fit-margin-top="0"
     fit-margin-left="0"
     fit-margin-right="0"
     fit-margin-bottom="0"
     inkscape:window-width="1440"
     inkscape:window-height="837"
     inkscape:window-x="-8"
     inkscape:window-y="-8"
     inkscape:window-maximized="1"
     lock-margins="false"
     inkscape:snap-global="false" />
  <metadata
     id="metadata5132">
    <rdf:RDF>
      <cc:Work
         rdf:about="">
        <dc:format>image/svg+xml</dc:format>
        <dc:type
           rdf:resource="http://purl.org/dc/dcmitype/StillImage" />
        <dc:title></dc:title>
      </cc:Work>
    </rdf:RDF>
  </metadata>
  <g
     inkscape:label="Layer 1"
     inkscape:groupmode="layer"
     id="layer1"
     transform="translate(-41.863807,-58.452979)">
    <path
       id="path6226-6-3-4-2-1-7-5-9-72-96"
       style="fill:#000000;fill-opacity:0;stroke:none;stroke-width:1.20436;stroke-linecap:round;stroke-linejoin:miter;stroke-miterlimit:4;stroke-dasharray:none;stroke-opacity:1;paint-order:fill markers stroke;filter:url(#filter6285-69)"
       d="m 51.869302,77.684674 c 2.71358,-4.68788 6.01152,-9.15219 6.01152,-12.2863 0,-3.13412 -2.6948,-5.67481 -6.019,-5.67481 m 0.007,17.96111 c -2.71358,-4.68788 -6.026471,-9.15219 -6.026471,-12.28631 0,-3.13411 2.694801,-5.6748 6.019001,-5.6748"
       inkscape:connector-curvature="0"
       sodipodi:nodetypes="csccsc" />
    <ellipse
       style="fill:#000000;fill-opacity:0.650602;stroke:none;stroke-width:0.526;stroke-linecap:round;stroke-miterlimit:4;stroke-dasharray:none;stroke-opacity:0.6;filter:url(#filter6315)"
       id="path6289"
       cx="52.19746"
       cy="78.22171"
       rx="5.9790034"
       ry="2.073643"
       transform="matrix(1.0514998,0,0,0.69372416,-2.820245,24.303028)" />
    <path
       sodipodi:type="star"
       style="fill:none;stroke:none;stroke-width:0.0264583;stroke-linecap:round;stroke-opacity:0.6"
       id="path5708"
       sodipodi:sides="3"
       sodipodi:cx="32.73978"
       sodipodi:cy="73.521446"
       sodipodi:r1="5.0146394"
       sodipodi:r2="2.5073197"
       sodipodi:arg1="0.82927243"
       sodipodi:arg2="1.87647"
       inkscape:flatsided="true"
       inkscape:rounded="0"
       inkscape:randomized="0"
       d="m 36.12673,77.219443 -8.282983,-2.61381 6.405117,-5.86637 z"
       inkscape:transform-center-x="0.75454181"
       inkscape:transform-center-y="-0.54209345" />
    <path
       sodipodi:type="star"
       style="fill:none;stroke:none;stroke-width:0.0264583;stroke-linecap:round;stroke-opacity:0.6"
       id="path5710"
       sodipodi:sides="3"
       sodipodi:cx="31.149986"
       sodipodi:cy="71.205879"
       sodipodi:r1="4.2385869"
       sodipodi:r2="2.1192935"
       sodipodi:arg1="0.61740589"
       sodipodi:arg2="1.6646034"
       inkscape:flatsided="true"
       inkscape:rounded="0"
       inkscape:randomized="0"
       d="m 34.606058,73.65969 -7.30917,-0.68767 4.250125,-5.986092 z"
       inkscape:transform-center-x="0.19851321"
       inkscape:transform-center-y="-0.88307031" />
    <path
       id="path6226-6-3-4-2-1-7-5-9-72-96-6-5-5"
       style="fill:#ffffff;fill-opacity:1;stroke:#523209;stroke-width:1.20436;stroke-linecap:round;stroke-linejoin:miter;stroke-miterlimit:4;stroke-dasharray:none;stroke-opacity:1;paint-order:fill markers stroke"
       d="m 52.024779,77.388881 c 2.71358,-4.687877 6.01152,-9.152188 6.01152,-12.286298 0,-3.13412 -2.6948,-5.67481 -6.019,-5.67481 m 0.007,17.961108 c -2.713582,-4.687877 -6.026473,-9.152188 -6.026473,-12.286308 0,-3.13411 2.694801,-5.6748 6.019002,-5.6748"
       inkscape:connector-curvature="0"
       sodipodi:nodetypes="csccsc" />
    <path
       style="fill:#000000;fill-opacity:1;stroke-width:0.0719436"
       d="m 70.006174,74.138261 c -0.126074,-0.07687 -0.263666,-0.204122 -0.30576,-0.282776 -0.101768,-0.190154 -0.09298,-0.654749 0.01594,-0.843281 0.117806,-0.203897 3.78329,-3.352194 3.852836,-3.309212 0.03021,0.01867 0.195833,0.378161 0.368057,0.798873 0.306711,0.749233 0.310325,0.767562 0.176175,0.893287 -0.430585,0.403543 -3.18807,2.730991 -3.317927,2.800488 -0.228906,0.122507 -0.530229,0.100603 -0.789324,-0.05738 z m 3.956896,0 c -0.288188,-0.175721 -0.382295,-0.350148 -0.382295,-0.708585 0,-0.38992 0.17098,-0.580346 1.051559,-1.171149 0.410867,-0.275662 0.74703,-0.518965 0.74703,-0.540675 0,-0.02171 -0.242809,-0.606724 -0.539576,-1.300032 -0.296768,-0.693308 -0.539577,-1.3499 -0.539577,-1.459095 0,-0.109194 0.07398,-0.30854 0.1644,-0.442991 0.149992,-0.22303 0.298025,-0.292451 1.689026,-0.792075 2.409346,-0.865397 2.527104,-0.88582 3.014909,-0.522882 0.259632,0.193172 0.32251,0.354544 0.529244,1.358276 0.181773,0.882546 0.519637,5.015724 0.429407,5.253047 -0.178475,0.469424 -0.747431,0.620665 -1.101267,0.29274 -0.1031,-0.09555 -0.2033,-0.249329 -0.222667,-0.341732 -0.01937,-0.0924 -0.101055,-1.022677 -0.18153,-2.067275 -0.08047,-1.044599 -0.156502,-1.909456 -0.168951,-1.921905 -0.01962,-0.01962 -1.483354,0.402387 -1.748192,0.504015 -0.07228,0.02774 -0.01515,0.220411 0.230601,0.77772 0.349775,0.793218 0.401698,1.152723 0.208972,1.446861 -0.06318,0.09643 -0.65701,0.535485 -1.319618,0.975682 -1.29593,0.86094 -1.445206,0.913872 -1.861475,0.660055 z M 81.170822,69.2996 c -1.16223,-0.40626 -1.36216,-1.95905 -0.344253,-2.673701 0.649436,-0.455956 1.650624,-0.261616 2.092553,0.406185 0.168495,0.254612 0.194177,0.366293 0.194177,0.844402 0,0.489174 -0.02311,0.584325 -0.205979,0.848209 -0.370535,0.534682 -1.131158,0.786503 -1.736498,0.574905 z"
       id="path7218"
       clip-path="url(#clipPath7220)"
       transform="matrix(0.91494964,0,0,0.91494964,-18.179479,1.7407387)" />
  </g>
</svg>
