<?xml version="1.0" encoding="UTF-8" standalone="no"?>
<!-- Created with Inkscape (http://www.inkscape.org/) -->

<svg
   xmlns:dc="http://purl.org/dc/elements/1.1/"
   xmlns:cc="http://creativecommons.org/ns#"
   xmlns:rdf="http://www.w3.org/1999/02/22-rdf-syntax-ns#"
   xmlns:svg="http://www.w3.org/2000/svg"
   xmlns="http://www.w3.org/2000/svg"
   xmlns:sodipodi="http://sodipodi.sourceforge.net/DTD/sodipodi-0.dtd"
   xmlns:inkscape="http://www.inkscape.org/namespaces/inkscape"
   width="107.54939mm"
   height="28.507782mm"
   viewBox="0 0 107.54938 28.507781"
   version="1.1"
   id="svg2082"
   inkscape:version="0.92.4 (5da689c313, 2019-01-14)"
   sodipodi:docname="ts_header.svg">
  <defs
     id="defs2076" />
  <sodipodi:namedview
     id="base"
     pagecolor="#ffffff"
     bordercolor="#666666"
     borderopacity="1.0"
     inkscape:pageopacity="0.0"
     inkscape:pageshadow="2"
     inkscape:zoom="1.979899"
     inkscape:cx="194.51383"
     inkscape:cy="96.788727"
     inkscape:document-units="mm"
     inkscape:current-layer="layer1"
     showgrid="false"
     inkscape:window-width="1440"
     inkscape:window-height="878"
     inkscape:window-x="1432"
     inkscape:window-y="-8"
     inkscape:window-maximized="1" />
  <metadata
     id="metadata2079">
    <rdf:RDF>
      <cc:Work
         rdf:about="">
        <dc:format>image/svg+xml</dc:format>
        <dc:type
           rdf:resource="http://purl.org/dc/dcmitype/StillImage" />
        <dc:title></dc:title>
      </cc:Work>
    </rdf:RDF>
  </metadata>
  <g
     inkscape:label="Layer 1"
     inkscape:groupmode="layer"
     id="layer1"
     transform="translate(-1.9818423,-0.42155606)">
    <g
       id="g3665"
       style="stroke-width:1.20000005;stroke-miterlimit:4;stroke-dasharray:none"
       transform="translate(-5.2916669)">
      <g
         transform="matrix(0.35277777,0,0,-0.35277777,8.7349925,12.223188)"
         id="g3779-8-5-9"
         style="stroke-width:3.40157485;stroke-miterlimit:4;stroke-dasharray:none">
        <path
           inkscape:connector-curvature="0"
           id="path3781-7-2-6"
           style="fill:#523209;fill-opacity:1;fill-rule:nonzero;stroke:none;stroke-width:3.40157485;stroke-miterlimit:4;stroke-dasharray:none"
           d="M 0,0 H 14.546 V -2.443 H 0 V -16.14 c 0.035,-1.928 0.531,-4.088 1.486,-6.476 0.549,-1.452 2.071,-3.327 4.566,-5.628 3.079,-1.911 6.122,-2.867 9.131,-2.867 h 0.319 v -2.442 h -0.106 c -5.239,0 -9.698,1.875 -13.379,5.627 -2.973,3.469 -4.459,7.751 -4.459,12.848 V 12.104 H 0 Z" />
      </g>
      <g
         style="stroke-width:3.40157485;stroke-miterlimit:4;stroke-dasharray:none"
         transform="matrix(0.35277777,0,0,-0.35277777,8.7349925,12.223188)"
         id="g3783-3-3-8">
        <path
           inkscape:connector-curvature="0"
           id="path3785-1-5-9"
           style="fill:none;stroke:#523209;stroke-width:3.40157485;stroke-linecap:butt;stroke-linejoin:miter;stroke-miterlimit:4;stroke-dasharray:none;stroke-opacity:1"
           d="M 0,0 H 14.546 V -2.443 H 0 V -16.14 c 0.035,-1.928 0.531,-4.088 1.486,-6.476 0.549,-1.452 2.071,-3.327 4.566,-5.628 3.079,-1.911 6.122,-2.867 9.131,-2.867 h 0.319 v -2.442 h -0.106 c -5.239,0 -9.698,1.875 -13.379,5.627 -2.973,3.469 -4.459,7.751 -4.459,12.848 V 12.104 H 0 Z" />
      </g>
    </g>
    <g
       id="g3671"
       transform="translate(-4.3216395)"
       style="stroke-width:1.20000005;stroke-miterlimit:4;stroke-dasharray:none">
      <g
         transform="matrix(0.35277777,0,0,-0.35277777,17.110185,13.909227)"
         id="g3787-1-1-25"
         style="stroke-width:3.40157485;stroke-miterlimit:4;stroke-dasharray:none">
        <path
           inkscape:connector-curvature="0"
           id="path3789-5-0-17"
           style="fill:#523209;fill-opacity:1;fill-rule:nonzero;stroke:none;stroke-width:3.40157485;stroke-miterlimit:4;stroke-dasharray:none"
           d="M 0,0 C 2.584,3.045 5.663,4.566 9.238,4.566 H 9.45 V 2.23 H 9.344 C 5.928,2.23 3.309,0.85 1.487,-1.91 0.566,-3.167 0.106,-5.256 0.106,-8.175 V -28.773 H -2.336 V 4.672 H 0 Z" />
      </g>
      <g
         style="stroke-width:3.40157485;stroke-miterlimit:4;stroke-dasharray:none"
         transform="matrix(0.35277777,0,0,-0.35277777,17.110185,13.909227)"
         id="g3791-1-9-8">
        <path
           inkscape:connector-curvature="0"
           id="path3793-0-5-3"
           style="fill:none;stroke:#523209;stroke-width:3.40157485;stroke-linecap:butt;stroke-linejoin:miter;stroke-miterlimit:4;stroke-dasharray:none;stroke-opacity:1"
           d="M 0,0 C 2.584,3.045 5.663,4.566 9.238,4.566 H 9.45 V 2.23 H 9.344 C 5.928,2.23 3.309,0.85 1.487,-1.91 0.566,-3.167 0.106,-5.256 0.106,-8.175 V -28.773 H -2.336 V 4.672 H 0 Z" />
      </g>
    </g>
    <g
       id="g3674"
       transform="translate(0.31887446)"
       style="stroke-width:1.20000005;stroke-miterlimit:4;stroke-dasharray:none">
      <path
         inkscape:connector-curvature="0"
         id="path3803-1-3-4"
         style="fill:#523209;fill-opacity:1;fill-rule:nonzero;stroke:#523209;stroke-width:1.20000005;stroke-linecap:butt;stroke-linejoin:miter;stroke-miterlimit:4;stroke-dasharray:none;stroke-opacity:1"
         d="m 37.287947,24.059869 h -0.842434 v -11.79865 h 0.842434 z m -0.0092,-14.1679 h -0.832908 v -1.93852 h 0.832908 z" />
    </g>
    <path
       d="M 42.04984,24.059869 H 41.18836 V 7.953449 h 0.86148 z"
       style="fill:#523209;fill-opacity:1;fill-rule:nonzero;stroke:#523209;stroke-width:1.20000005;stroke-linecap:butt;stroke-linejoin:miter;stroke-miterlimit:4;stroke-dasharray:none;stroke-opacity:1"
       id="path3805-0-4-2"
       inkscape:connector-curvature="0" />
    <path
       inkscape:connector-curvature="0"
       id="path3809-7-6-3"
       style="fill:#83964b;fill-opacity:1;fill-rule:nonzero;stroke:#83964b;stroke-width:0.69999999;stroke-miterlimit:4;stroke-dasharray:none;stroke-opacity:1"
       d="m 45.155787,12.783719 c -0.81245,0.79975 -1.2245,1.72014 -1.2245,2.73614 0,1.09079 0.45403,2.02742 1.37019,2.79965 0.60784,0.39687 1.2506,0.59866 1.91029,0.59866 0.0413,0 0.0825,-10e-4 0.11607,-0.002 h 4.73357 l 0.62794,0.14006 c 0.86149,0.40887 1.28024,1.0287 1.282,1.86901 l -0.0681,0.56692 c -0.29775,1.03046 -1.06433,1.53176 -2.34315,1.53176 h -7.66622 v 1.24848 h 7.85848 l 0.82868,-0.0374 0.0423,-0.006 c 0.67592,-0.17039 1.23684,-0.46531 1.68275,-0.89217 0.52493,-0.61666 0.83115,-1.25907 0.91228,-1.93569 l -0.002,-0.8188 -0.0773,-0.49989 c -0.12065,-0.55174 -0.45649,-1.0922 -1.00506,-1.61395 -0.52388,-0.4505 -1.1423,-0.71967 -1.86196,-0.80046 l -5.19078,3.71e-4 c -0.30197,-0.0219 -0.66921,-0.18521 -1.07138,-0.4692 -0.53305,-0.48719 -0.79199,-1.02411 -0.79199,-1.64147 0,-0.22755 0.0473,-0.49636 0.139,-0.79305 0.32596,-0.96167 1.06856,-1.4291 2.27047,-1.4291 h 7.62918 v -1.285879 h -7.44161 c -1.13595,0 -2.02389,0.24166 -2.65889,0.73484" />
    <g
       id="g3811-3-9-5"
       transform="matrix(0.35277777,0,0,-0.35277777,60.578223,12.394426)"
       style="stroke:#83964b;stroke-width:1.98425198;stroke-miterlimit:4;stroke-dasharray:none;stroke-opacity:1">
      <path
         d="m 0,0 c -3.695,-1.099 -6.555,-3.108 -8.515,-5.994 l -1.381,-2.229 -0.047,-0.092 c -1.226,-3.049 -1.848,-5.983 -1.84,-8.818 l 0.649,-3.876 c 0.616,-2.376 1.503,-4.406 2.659,-6.062 3.485,-4.378 7.966,-6.598 13.318,-6.598 h 15.68 v 3.645 H 7.817 c -3.783,0 -6.554,0.409 -8.233,1.215 -2.965,1.433 -5.152,3.793 -6.488,6.982 -0.545,1.564 -0.891,3.404 -1.03,5.38 0.139,1.68 0.347,3.077 0.604,4.098 1.304,3.739 3.167,6.232 5.54,7.411 l 0.107,0.067 c 1.669,1.322 4.829,1.993 9.393,1.993 H 20.523 V 0.874 H 8.454 C 4.12,0.874 1.332,0.58 0,0"
         style="fill:#83964b;fill-opacity:1;fill-rule:nonzero;stroke:#83964b;stroke-width:1.98425198;stroke-miterlimit:4;stroke-dasharray:none;stroke-opacity:1"
         id="path3813-2-9-52"
         inkscape:connector-curvature="0" />
    </g>
    <g
       id="g3819-6-7-2"
       transform="matrix(0.35277777,0,0,-0.35277777,94.373142,18.179096)"
       style="stroke:#83964b;stroke-width:1.98425198;stroke-miterlimit:4;stroke-dasharray:none;stroke-opacity:1">
      <path
         d="m 0,0 c 0,-4.71 -1.867,-8.408 -5.641,-11.26 -2.672,-1.499 -5.181,-2.26 -7.457,-2.26 h -1.166 c -2.46,0 -5.032,0.828 -7.6,2.426 -3.627,2.753 -5.39,6.208 -5.39,10.563 v 0.673 0.282 c 0,3.778 1.441,7.098 4.211,9.811 3.029,2.179 6.055,3.285 8.99,3.285 h 0.637 c 4.001,0 7.532,-1.616 10.448,-4.74 C -0.999,6.031 0,3.077 0,0 m -4.976,15.193 c -2.575,1.251 -5.19,1.951 -7.801,2.078 -4.116,0 -7.384,-0.733 -9.717,-2.18 -1.468,-0.55 -3.102,-1.934 -4.971,-4.212 v 6.498 h -3.646 v -46.858 h 3.646 v 18.447 c 0.525,-0.626 1.221,-1.348 2.101,-2.178 3.455,-2.765 7.225,-4.166 11.206,-4.166 1.92,0 3.973,0.293 6.15,0.886 4.517,1.638 7.7,4.201 9.439,7.572 1.468,2.351 2.214,5.316 2.214,8.814 0,2.573 -0.255,4.516 -0.782,5.942 -1.566,4.227 -4.195,7.37 -7.839,9.357"
         style="fill:#83964b;fill-opacity:1;fill-rule:nonzero;stroke:#83964b;stroke-width:1.98425198;stroke-miterlimit:4;stroke-dasharray:none;stroke-opacity:1"
         id="path3821-4-0-1"
         inkscape:connector-curvature="0" />
    </g>
    <g
       id="g3823-6-4-1"
       transform="matrix(0.35277777,0,0,-0.35277777,98.268864,17.255108)"
       style="stroke:#83964b;stroke-width:1.98425198;stroke-miterlimit:4;stroke-dasharray:none;stroke-opacity:1">
      <path
         d="m 0,0 c 0.158,1.927 1.068,4.023 2.668,6.194 1.622,1.64 3.276,2.848 4.839,3.563 2.562,0.757 4.539,1.141 5.875,1.143 1.592,-0.035 3.419,-0.416 5.425,-1.13 2.402,-0.89 4.379,-2.424 5.89,-4.581 C 25.639,3.968 26.319,2.199 26.718,0 Z m 30.66,-2.301 c 0,3.501 -0.962,6.755 -2.893,9.72 l -1.76,2.19 c -3.637,3.344 -8.02,5.04 -13.092,5.04 H 12.9 C 10.834,14.434 8.798,14.033 6.8,13.444 2.956,11.95 0.032,9.542 -1.916,6.236 c -1.446,-3.095 -2.18,-6.075 -2.18,-8.855 0,-2.799 0.625,-5.598 1.844,-8.282 0.535,-1.415 2.115,-3.297 4.908,-5.815 3.268,-2.106 6.593,-3.175 9.883,-3.175 h 1.699 c 1.376,0 3.252,0.329 5.638,0.999 3.222,1.291 5.879,3.286 7.943,5.994 1.769,3.093 2.628,5.449 2.628,7.199 v 0.814 h -3.663 l -0.082,-0.506 c -0.203,-1.27 -0.51,-2.361 -0.896,-3.218 -2.62,-5.139 -6.821,-7.637 -12.843,-7.637 -1.171,0 -2.647,0.277 -4.41,0.83 -1.699,0.45 -3.682,1.758 -5.831,3.813 -1.946,2.601 -2.941,5.277 -2.957,7.957 H 30.66 Z"
         style="fill:#83964b;fill-opacity:1;fill-rule:nonzero;stroke:#83964b;stroke-width:1.98425198;stroke-miterlimit:4;stroke-dasharray:none;stroke-opacity:1"
         id="path3825-9-4-1"
         inkscape:connector-curvature="0" />
    </g>
    <rect
       style="fill:#ffffff;fill-opacity:1;stroke:none;stroke-width:0.7133345;stroke-miterlimit:4;stroke-dasharray:none;stroke-dashoffset:0;stroke-opacity:1;paint-order:fill markers stroke"
       id="rect3418"
       width="2.80633"
       height="0.45101732"
       x="106.7249"
       y="18.892363" />
    <g
       id="g3815"
       transform="matrix(0.35277777,0,0,-0.35277777,79.611643,18.046632)"
       style="stroke:#83964b;stroke-width:1.98425198;stroke-miterlimit:4;stroke-dasharray:none;stroke-opacity:1">
      <path
         d="m 0,0 c 0,-3.129 -0.964,-6.085 -2.817,-8.727 -2.947,-3.25 -6.512,-4.898 -10.597,-4.898 h -0.639 c -1.986,0 -4.149,0.552 -6.388,1.619 -4.583,2.617 -6.811,6.37 -6.811,11.476 v 0.677 0.171 c 0,3.508 1.268,6.658 3.712,9.308 3.008,2.514 6.199,3.788 9.487,3.788 h 0.639 c 2.905,0 5.755,-0.964 8.426,-2.833 C -1.679,7.813 0,4.252 0,0 m 0.105,10.887 c -3.353,4.169 -8.177,6.279 -14.369,6.279 -0.805,0 -2.267,-0.212 -4.523,-0.661 -4.412,-1.296 -7.817,-3.923 -10.143,-7.861 -1.446,-3.091 -2.179,-5.999 -2.179,-8.644 0,-1.677 0.329,-3.662 0.986,-5.926 1.205,-3.579 3.283,-6.396 6.164,-8.366 2.851,-2.047 6.47,-3.085 10.758,-3.085 h 0.955 c 1,0 2.267,0.215 3.905,0.667 3.595,1.184 6.427,3.027 8.446,5.495 v -6.162 h 3.54 v 34.648 h -3.54 z"
         style="fill:#83964b;fill-opacity:1;fill-rule:nonzero;stroke:#83964b;stroke-width:1.98425198;stroke-miterlimit:4;stroke-dasharray:none;stroke-opacity:1"
         id="path3817"
         inkscape:connector-curvature="0" />
    </g>
    <g
       id="g3718"
       transform="matrix(1.1368905,0,0,1.1368905,-5.8024362,-12.701783)">
      <path
         inkscape:connector-curvature="0"
         id="path11584-69-2-3"
         d="m 24.410109,25.007659 2.040463,2.98221"
         style="fill:none;stroke:#ffffff;stroke-width:0.52916664;stroke-linecap:butt;stroke-linejoin:miter;stroke-miterlimit:4;stroke-dasharray:none;stroke-opacity:1" />
      <path
         inkscape:connector-curvature="0"
         id="path11584-9-4-1-4"
         d="m 31.827714,24.811459 -2.040463,2.98222"
         style="fill:none;stroke:#ffffff;stroke-width:0.52916664;stroke-linecap:butt;stroke-linejoin:miter;stroke-miterlimit:4;stroke-dasharray:none;stroke-opacity:1" />
      <ellipse
         ry="3.2699423"
         rx="7.6920648"
         cy="29.583879"
         cx="27.501673"
         id="path11552-4-8-0-7-8-1-2"
         style="fill:#ffffff;fill-opacity:1;stroke:#523209;stroke-width:1.21155643;stroke-linecap:round;stroke-linejoin:miter;stroke-miterlimit:4;stroke-dasharray:none;stroke-opacity:1;paint-order:fill markers stroke" />
      <path
         sodipodi:nodetypes="csccsc"
         inkscape:connector-curvature="0"
         d="m 27.509387,30.106537 c 2.713579,-4.68789 6.01152,-9.152191 6.01152,-12.2863 0,-3.134121 -2.6948,-5.674811 -6.019001,-5.674811 m 0.007,17.961111 c -2.713581,-4.68789 -6.02647,-9.152191 -6.02647,-12.286311 0,-3.13411 2.694799,-5.6748 6.019,-5.6748"
         style="fill:#ffffff;fill-opacity:1;stroke:#523209;stroke-width:1.20435858;stroke-linecap:round;stroke-linejoin:miter;stroke-miterlimit:4;stroke-dasharray:none;stroke-opacity:1;paint-order:fill markers stroke"
         id="path6226-6-3-4-2-1-7-5-9-72-9-7" />
      <ellipse
         ry="3.067678"
         rx="3.0276358"
         cy="17.854967"
         cx="27.501673"
         id="path11278-10-8-42-1-5-9-8-15-9-2"
         style="fill:#ffffff;fill-opacity:1;stroke:#523209;stroke-width:1.16499996;stroke-miterlimit:4;stroke-dasharray:none;stroke-opacity:1;paint-order:fill markers stroke" />
    </g>
  </g>
</svg>
